<?xml version="1.0" standalone="no"?>
<!DOCTYPE svg PUBLIC "-//W3C//DTD SVG 20010904//EN"
 "http://www.w3.org/TR/2001/REC-SVG-20010904/DTD/svg10.dtd">
<svg version="1.0" xmlns="http://www.w3.org/2000/svg"
 width="980.000000pt" height="391.000000pt" viewBox="0 0 980.000000 391.000000"
 preserveAspectRatio="xMidYMid meet">
<metadata>
Created by potrace 1.16, written by Peter Selinger 2001-2019
</metadata>
<g transform="translate(0.000000,391.000000) scale(0.100000,-0.100000)"
fill="#000000" stroke="none">
<path d="M700 2653 c-53 -8 -146 -35 -168 -50 -19 -11 -21 -17 -12 -29 10 -11
43 -14 155 -13 78 1 148 5 154 9 10 5 9 15 -2 42 -11 27 -22 37 -47 42 -33 6
-37 6 -80 -1z"/>
<path d="M887 2633 c-3 -5 2 -25 10 -45 14 -34 22 -40 109 -74 52 -20 98 -34
101 -30 11 10 -26 91 -48 105 -29 17 -127 51 -150 51 -10 0 -20 -3 -22 -7z"/>
<path d="M3243 2595 c-153 -41 -242 -135 -251 -265 -6 -78 12 -134 60 -186 48
-52 113 -84 240 -120 213 -60 224 -63 256 -95 63 -62 31 -152 -64 -178 -49
-14 -138 -14 -186 -1 -68 19 -128 87 -128 145 l0 25 -106 0 -107 0 6 -58 c6
-70 24 -109 80 -169 74 -80 189 -123 331 -123 253 0 401 107 414 298 6 89 -14
147 -67 199 -53 52 -112 78 -278 123 -182 50 -199 56 -223 88 -56 71 18 162
132 162 100 0 170 -41 189 -112 l10 -38 106 0 105 0 -7 48 c-15 101 -72 177
-170 225 -92 46 -239 59 -342 32z"/>
<path d="M5940 2091 l0 -501 110 0 110 0 0 196 0 195 144 -3 c128 -3 148 -5
173 -24 38 -29 59 -89 72 -213 18 -166 5 -151 131 -151 l108 0 -13 44 c-7 24
-16 86 -20 137 -11 161 -44 237 -118 275 l-30 16 32 16 c43 20 95 83 109 131
15 47 15 144 2 193 -15 53 -90 131 -152 159 -51 23 -63 24 -355 27 l-303 4 0
-501z m539 308 c41 -14 62 -57 62 -124 0 -64 -12 -90 -54 -115 -28 -17 -51
-20 -179 -20 l-148 0 0 135 0 135 144 0 c79 0 157 -5 175 -11z"/>
<path d="M8570 2090 l0 -500 95 0 95 0 0 123 0 123 41 39 c23 22 43 36 45 30
3 -5 46 -77 98 -160 l93 -150 122 -3 122 -3 -151 226 c-82 123 -150 227 -150
230 0 3 60 64 133 135 l132 129 -116 1 -117 0 -120 -125 c-66 -69 -123 -125
-126 -125 -3 0 -7 118 -8 263 l-3 262 -92 3 -93 3 0 -501z"/>
<path d="M591 2528 c-26 -14 -26 -14 -16 -59 9 -39 29 -46 173 -65 137 -18
144 -15 129 52 -15 66 -38 78 -161 82 -69 2 -109 -1 -125 -10z"/>
<path d="M3957 2523 c-4 -3 -7 -53 -7 -110 l0 -103 -60 0 -60 0 0 -65 0 -65
59 0 59 0 4 -242 c3 -220 5 -246 23 -276 36 -59 150 -92 270 -77 l55 6 0 75 0
74 -53 0 c-93 0 -92 -3 -95 234 l-3 206 75 0 76 0 0 65 0 65 -75 0 -75 0 0
110 0 110 -93 0 c-52 0 -97 -3 -100 -7z"/>
<path d="M930 2487 c0 -30 31 -103 49 -114 26 -16 182 -63 192 -58 11 7 -24
93 -48 116 -21 22 -141 69 -173 69 -11 0 -20 -6 -20 -13z"/>
<path d="M1330 2403 c0 -51 112 -178 148 -167 14 5 15 4 2 -5 -13 -9 -13 -11
2 -11 10 0 23 -10 29 -22 6 -13 19 -31 27 -41 18 -20 25 -47 12 -47 -5 0 -11
8 -15 19 -10 32 -128 141 -140 129 -2 -2 9 -24 25 -50 29 -46 132 -135 138
-119 1 5 31 -20 66 -55 52 -52 68 -62 89 -59 14 3 29 0 33 -7 5 -8 2 -9 -9 -5
-29 11 -19 -10 20 -42 21 -17 34 -31 30 -31 -4 0 -35 23 -68 50 -60 50 -82 63
-59 35 7 -8 9 -15 5 -15 -4 0 -25 20 -47 45 -39 44 -125 111 -133 103 -2 -2 8
-22 23 -45 27 -42 144 -129 161 -119 4 3 17 -4 27 -15 10 -11 33 -29 51 -40
18 -11 31 -25 28 -30 -4 -5 -29 9 -58 30 -53 40 -116 75 -122 69 -8 -8 76 -88
111 -106 54 -27 88 -37 80 -23 -4 6 -3 11 3 11 16 0 22 -18 9 -24 -9 -4 -8 -5
2 -4 8 1 41 -11 73 -26 33 -16 65 -25 75 -21 14 5 14 7 2 15 -8 6 -10 10 -5
10 6 0 17 -5 25 -10 13 -9 13 -10 0 -11 -8 0 3 -9 25 -20 l40 -20 -35 7 c-19
3 -36 10 -38 14 -2 4 -12 6 -22 3 -11 -3 -57 11 -103 31 -100 43 -124 46 -76
10 55 -42 134 -75 191 -79 29 -2 71 -9 93 -14 56 -15 115 -14 95 0 -11 8 -5 9
24 5 41 -5 138 12 131 24 -3 4 12 10 33 14 20 3 60 17 87 31 55 28 55 28 -72
-11 -78 -24 -97 -26 -183 -20 -52 4 -106 7 -120 6 -16 0 -21 3 -13 8 8 5 -6
15 -40 27 -28 10 -55 23 -59 29 -4 6 -16 11 -26 12 -10 1 -30 9 -45 19 -41 27
-32 30 11 4 24 -15 3 9 -57 66 -52 50 -106 103 -120 120 -14 16 -46 51 -71 76
-25 25 -64 69 -88 97 -24 30 -48 49 -56 46 -8 -3 -18 6 -25 24 -13 31 -121
143 -121 125z"/>
<path d="M612 2355 c-14 -26 4 -135 26 -157 32 -33 249 -52 286 -25 16 11 16
17 2 76 -8 35 -22 71 -30 79 -17 17 -144 41 -223 41 -37 1 -55 -3 -61 -14z"/>
<path d="M4613 2320 c-131 -28 -198 -86 -222 -189 l-9 -41 98 0 98 0 12 35
c19 59 88 85 172 66 51 -12 78 -41 78 -86 0 -53 -24 -65 -181 -91 -197 -33
-263 -69 -289 -162 -46 -168 79 -296 273 -278 70 6 157 37 178 62 18 21 27 17
34 -16 l7 -30 100 0 c92 0 99 1 92 18 -4 9 -11 143 -14 297 -4 240 -7 285 -22
312 -21 38 -61 68 -120 89 -51 19 -225 27 -285 14z m208 -534 c-29 -66 -109
-98 -190 -76 -48 13 -71 42 -71 88 0 50 42 87 116 101 32 6 82 17 109 24 l50
12 3 -52 c2 -36 -3 -67 -17 -97z"/>
<path d="M7143 2319 c-56 -11 -132 -45 -161 -72 -29 -27 -57 -80 -65 -124 l-6
-33 98 0 99 0 12 35 c19 59 88 85 172 66 51 -12 78 -41 78 -86 0 -52 -24 -65
-177 -90 -76 -13 -157 -31 -180 -40 -130 -52 -165 -235 -64 -336 50 -51 130
-74 224 -65 70 6 157 37 178 62 18 21 27 17 34 -16 l7 -30 100 0 c92 0 99 1
92 18 -4 9 -11 143 -14 298 l-5 281 -27 40 c-30 46 -87 78 -167 93 -62 12
-168 11 -228 -1z m208 -533 c-29 -66 -109 -98 -190 -76 -48 13 -71 42 -71 88
0 50 42 87 116 101 32 6 82 17 109 24 l50 12 3 -52 c2 -36 -3 -67 -17 -97z"/>
<path d="M8060 2321 c-47 -15 -87 -40 -119 -76 l-31 -36 0 51 0 50 -95 0 -95
0 0 -360 0 -360 100 0 100 0 0 216 c0 266 11 317 77 353 36 19 127 14 155 -9
40 -31 48 -87 48 -334 l0 -226 101 0 101 0 -4 278 c-3 265 -5 279 -27 330 -13
29 -37 63 -53 77 -53 45 -184 68 -258 46z"/>
<path d="M987 2307 c-9 -24 26 -128 48 -143 24 -16 199 -44 214 -34 16 9 -42
123 -70 138 -25 13 -156 52 -175 52 -7 0 -14 -6 -17 -13z"/>
<path d="M5115 2293 c82 -209 255 -685 255 -702 0 -36 -28 -80 -56 -87 -14 -4
-49 -4 -79 -2 l-55 5 0 -84 0 -83 103 0 c87 0 110 3 147 23 77 39 92 68 246
484 79 213 151 405 159 426 l15 37 -103 0 -103 0 -74 -232 c-40 -128 -77 -240
-81 -248 -4 -8 -38 81 -86 230 l-79 245 -108 3 c-101 2 -108 1 -101 -15z"/>
<path d="M1271 2213 c0 -10 13 -38 28 -63 24 -40 37 -49 106 -77 44 -17 81
-30 83 -29 2 2 -13 29 -33 60 -30 47 -47 62 -105 91 -81 41 -80 40 -79 18z"/>
<path d="M653 2095 c-21 -15 -23 -24 -23 -120 0 -116 11 -152 49 -162 34 -9
45 -7 178 29 76 20 118 37 133 53 l22 23 -21 74 c-25 90 -45 108 -116 108 -28
0 -85 3 -126 6 -59 5 -78 2 -96 -11z"/>
<path d="M1061 2086 c-11 -13 -9 -27 9 -81 13 -39 30 -69 42 -76 21 -11 221
-3 246 10 19 11 -58 125 -94 139 -16 6 -65 14 -110 17 -66 6 -82 4 -93 -9z"/>
<path d="M1360 2044 c0 -22 75 -104 108 -117 45 -18 142 -41 147 -35 2 2 -20
29 -49 60 -38 40 -69 61 -110 77 -56 21 -96 27 -96 15z"/>
<path d="M1285 1889 c-140 -18 -158 -41 -98 -128 47 -68 64 -72 171 -37 42 14
96 30 120 36 26 7 42 16 40 24 -4 18 -106 106 -123 106 -7 0 -19 2 -27 4 -7 2
-44 -1 -83 -5z"/>
<path d="M1500 1876 c0 -28 96 -94 153 -105 160 -30 162 -28 42 53 -27 18 -75
39 -105 45 -30 7 -63 15 -72 18 -12 3 -18 -1 -18 -11z"/>
<path d="M872 1779 c-159 -55 -205 -87 -222 -148 -5 -22 -6 -89 -1 -170 13
-205 7 -206 324 37 74 57 139 113 144 125 8 18 2 38 -33 110 -53 105 -48 104
-212 46z"/>
</g>
</svg>
